<svg width="250" height="44" viewBox="0 0 250 44" fill="none" xmlns="http://www.w3.org/2000/svg">
<path d="M3.28467 39.9458C6.44406 40.347 11.7578 39.7907 17.994 34.2425M31.5265 14.898C26.8478 24.4589 22.21 30.4915 17.994 34.2425M31.5265 14.898C29.061 14.7859 23.5751 15.2005 21.3561 17.7558M31.5265 14.898C32.4231 17.2234 34.695 23.0539 32.642 25.9281M17.994 34.2425C8.91623 33.2215 -0.0774569 19.1006 17.0694 10.275C26.1308 5.61107 30.2657 8.1737 34.8046 3.55078C49.682 34.6504 23.3734 48.9395 17.994 34.2425Z" stroke="#06A77D" stroke-width="3.07944" stroke-linecap="square"/>
<path d="M52.4453 38.564V4.32031H73.8476V7.67334H55.941V19.516H70.994V22.869H55.941V35.211H73.8476V38.564H52.4453Z" fill="#1C1C1C"/>
<path d="M90.2234 39.2774C82.4472 39.2774 78.2381 33.6415 78.1429 25.7226C78.2381 17.6373 82.5661 12.1678 90.2471 12.1678C95.4313 12.1678 99.569 14.8788 100.996 19.2782L97.5715 20.372C96.3587 17.3044 93.5764 15.5209 90.2234 15.5209C84.5399 15.5209 81.924 19.73 81.8527 25.7226C81.924 31.8817 84.7063 35.9244 90.2234 35.9244C93.6953 35.9244 96.1922 34.3073 97.4764 31.2159L100.996 32.2622C99.0697 36.828 95.3124 39.2774 90.2234 39.2774Z" fill="#1C1C1C"/>
<path d="M115.933 39.2774C108.276 39.2774 103.781 33.6653 103.781 25.6988C103.781 17.6135 108.418 12.1678 115.933 12.1678C123.638 12.1678 128.108 17.7562 128.108 25.6988C128.108 33.7842 123.543 39.2774 115.933 39.2774ZM107.491 25.6988C107.491 31.8817 110.368 35.9244 115.933 35.9244C121.64 35.9244 124.399 31.7628 124.399 25.6988C124.399 19.516 121.593 15.5209 115.933 15.5209C110.178 15.5209 107.491 19.7062 107.491 25.6988Z" fill="#1C1C1C"/>
<path d="M139.629 38.564V7.67334H127.667V4.32031H155.086V7.67334H143.125V38.564H139.629Z" fill="#1C1C1C"/>
<path d="M156.531 38.564V12.8812H159.67V16.9477C160.217 15.9727 160.93 15.1404 161.667 14.5696C163.689 12.8099 166.899 12.3105 169.158 12.8812V16.1629C167.256 15.7111 164.878 15.8062 163.023 17.3282C160.455 19.3495 160.026 22.6787 160.026 25.7464V38.564H156.531Z" fill="#1C1C1C"/>
<path d="M180.089 39.2774C174.262 39.2774 171.314 35.7579 171.314 31.6677C171.314 27.4586 174.025 25.2232 177.853 24.2007C181.325 23.3684 186.129 22.8214 189.553 22.3458C189.506 17.7086 187.579 15.4733 182.704 15.4733C179.185 15.4733 176.664 16.9952 175.689 20.4196L172.289 19.4208C173.478 14.8312 177.092 12.1678 182.752 12.1678C187.437 12.1678 190.861 13.9751 192.217 17.3044C192.835 18.8025 192.978 20.705 192.978 22.6074V38.564H189.862V34.3073C187.865 37.5652 184.464 39.2774 180.089 39.2774ZM174.809 31.6677C174.809 33.9031 176.355 36.2573 180.493 36.2573C185.392 36.2573 188.507 33.3799 189.173 29.5037C189.458 28.2433 189.506 26.5787 189.506 25.4135C186.129 25.8177 182.086 26.222 179.256 27.0068C177.068 27.6488 174.809 28.8854 174.809 31.6677Z" fill="#1C1C1C"/>
<path d="M209.822 39.2774C202.046 39.2774 197.836 33.6415 197.741 25.7226C197.836 17.6373 202.165 12.1678 209.846 12.1678C215.03 12.1678 219.167 14.8788 220.594 19.2782L217.17 20.372C215.957 17.3044 213.175 15.5209 209.822 15.5209C204.138 15.5209 201.522 19.73 201.451 25.7226C201.522 31.8817 204.305 35.9244 209.822 35.9244C213.294 35.9244 215.791 34.3073 217.075 31.2159L220.594 32.2622C218.668 36.828 214.911 39.2774 209.822 39.2774Z" fill="#1C1C1C"/>
<path d="M225.479 38.564L225.503 4.32031H229.023V25.247L240.485 12.8812H245.146L233.113 25.7226L246.715 38.564H241.626L229.023 26.1982V38.564H225.479Z" fill="#1C1C1C"/>
</svg>
