<svg width="250" height="44" viewBox="0 0 250 44" fill="none" xmlns="http://www.w3.org/2000/svg">
<path d="M3.28467 39.8794C6.44406 40.2806 11.7578 39.7243 17.994 34.1761M31.5265 14.8315C26.8478 24.3925 22.21 30.4251 17.994 34.1761M31.5265 14.8315C29.061 14.7195 23.5751 15.1341 21.3561 17.6894M31.5265 14.8315C32.4231 17.157 34.695 22.9875 32.642 25.8617M17.994 34.1761C8.91623 33.1551 -0.0774569 19.0342 17.0694 10.2086C26.1308 5.54466 30.2657 8.1073 34.8046 3.48438C49.682 34.584 23.3734 48.8731 17.994 34.1761Z" stroke="#5E2BFF" stroke-width="3.07944" stroke-linecap="square"/>
<path d="M52.4453 38.4976V4.25391H73.8476V7.60694H55.941V19.4495H70.994V22.8026H55.941V35.1446H73.8476V38.4976H52.4453Z" fill="#1C1C1C"/>
<path d="M90.2234 39.211C82.4472 39.211 78.2381 33.5751 78.1429 25.6562C78.2381 17.5709 82.5661 12.1014 90.2471 12.1014C95.4313 12.1014 99.569 14.8124 100.996 19.2117L97.5715 20.3056C96.3587 17.238 93.5764 15.4545 90.2234 15.4545C84.5399 15.4545 81.924 19.6636 81.8527 25.6562C81.924 31.8153 84.7063 35.858 90.2234 35.858C93.6953 35.858 96.1922 34.2409 97.4764 31.1495L100.996 32.1958C99.0697 36.7616 95.3124 39.211 90.2234 39.211Z" fill="#1C1C1C"/>
<path d="M115.933 39.211C108.276 39.211 103.781 33.5989 103.781 25.6324C103.781 17.5471 108.418 12.1014 115.933 12.1014C123.638 12.1014 128.108 17.6898 128.108 25.6324C128.108 33.7178 123.543 39.211 115.933 39.211ZM107.491 25.6324C107.491 31.8153 110.368 35.858 115.933 35.858C121.64 35.858 124.399 31.6964 124.399 25.6324C124.399 19.4495 121.593 15.4545 115.933 15.4545C110.178 15.4545 107.491 19.6398 107.491 25.6324Z" fill="#1C1C1C"/>
<path d="M139.629 38.4976V7.60694H127.667V4.25391H155.086V7.60694H143.125V38.4976H139.629Z" fill="#1C1C1C"/>
<path d="M156.531 38.4976V12.8148H159.67V16.8813C160.217 15.9063 160.93 15.074 161.667 14.5032C163.689 12.7435 166.899 12.2441 169.158 12.8148V16.0965C167.256 15.6447 164.878 15.7398 163.023 17.2618C160.455 19.2831 160.026 22.6123 160.026 25.68V38.4976H156.531Z" fill="#1C1C1C"/>
<path d="M180.089 39.211C174.262 39.211 171.314 35.6915 171.314 31.6013C171.314 27.3922 174.025 25.1568 177.853 24.1343C181.325 23.302 186.129 22.755 189.553 22.2794C189.506 17.6422 187.579 15.4069 182.704 15.4069C179.185 15.4069 176.664 16.9288 175.689 20.3532L172.289 19.3544C173.478 14.7648 177.092 12.1014 182.752 12.1014C187.437 12.1014 190.861 13.9087 192.217 17.238C192.835 18.7361 192.978 20.6386 192.978 22.541V38.4976H189.862V34.2409C187.865 37.4988 184.464 39.211 180.089 39.211ZM174.809 31.6013C174.809 33.8367 176.355 36.1909 180.493 36.1909C185.392 36.1909 188.507 33.3135 189.173 29.4373C189.458 28.1769 189.506 26.5123 189.506 25.3471C186.129 25.7513 182.086 26.1556 179.256 26.9404C177.068 27.5824 174.809 28.819 174.809 31.6013Z" fill="#1C1C1C"/>
<path d="M209.822 39.211C202.046 39.211 197.836 33.5751 197.741 25.6562C197.836 17.5709 202.165 12.1014 209.846 12.1014C215.03 12.1014 219.167 14.8124 220.594 19.2117L217.17 20.3056C215.957 17.238 213.175 15.4545 209.822 15.4545C204.138 15.4545 201.522 19.6636 201.451 25.6562C201.522 31.8153 204.305 35.858 209.822 35.858C213.294 35.858 215.791 34.2409 217.075 31.1495L220.594 32.1958C218.668 36.7616 214.911 39.211 209.822 39.211Z" fill="#1C1C1C"/>
<path d="M225.479 38.4976L225.503 4.25391H229.023V25.1806L240.485 12.8148H245.146L233.113 25.6562L246.715 38.4976H241.626L229.023 26.1318V38.4976H225.479Z" fill="#1C1C1C"/>
</svg>
